<mxfile host="app.diagrams.net" modified="2021-11-20T13:36:19.658Z" agent="5.0 (Macintosh; Intel Mac OS X 10_15_7) AppleWebKit/605.1.15 (KHTML, like Gecko) Version/15.1 Safari/605.1.15" etag="WW1_Dcxmj3LfRWVw_3k1" version="15.8.3" type="github">
  <diagram id="aIuRiDoqE4uHiwM2k7QK" name="Page-1">
    <mxGraphModel dx="1365" dy="1095" grid="1" gridSize="10" guides="1" tooltips="1" connect="1" arrows="1" fold="1" page="1" pageScale="1" pageWidth="850" pageHeight="1100" math="0" shadow="0">
      <root>
        <mxCell id="0" />
        <mxCell id="1" parent="0" />
        <mxCell id="7H0Wl0Si6EmYDlYRqUoa-4" style="edgeStyle=orthogonalEdgeStyle;rounded=0;orthogonalLoop=1;jettySize=auto;html=1;" parent="1" source="7H0Wl0Si6EmYDlYRqUoa-1" target="7H0Wl0Si6EmYDlYRqUoa-2" edge="1">
          <mxGeometry relative="1" as="geometry" />
        </mxCell>
        <mxCell id="7H0Wl0Si6EmYDlYRqUoa-1" value="d" style="rounded=0;whiteSpace=wrap;html=1;" parent="1" vertex="1">
          <mxGeometry x="190" y="280" width="120" height="60" as="geometry" />
        </mxCell>
        <mxCell id="7H0Wl0Si6EmYDlYRqUoa-5" style="edgeStyle=orthogonalEdgeStyle;rounded=0;orthogonalLoop=1;jettySize=auto;html=1;" parent="1" source="7H0Wl0Si6EmYDlYRqUoa-2" target="7H0Wl0Si6EmYDlYRqUoa-3" edge="1">
          <mxGeometry relative="1" as="geometry" />
        </mxCell>
        <mxCell id="7H0Wl0Si6EmYDlYRqUoa-2" value="e" style="rounded=0;whiteSpace=wrap;html=1;" parent="1" vertex="1">
          <mxGeometry x="190" y="380" width="120" height="60" as="geometry" />
        </mxCell>
        <mxCell id="7H0Wl0Si6EmYDlYRqUoa-3" value="f" style="rounded=0;whiteSpace=wrap;html=1;" parent="1" vertex="1">
          <mxGeometry x="190" y="480" width="120" height="60" as="geometry" />
        </mxCell>
      </root>
    </mxGraphModel>
  </diagram>
</mxfile>
